<svg width="84" height="84" viewBox="0 0 84 84" fill="none" xmlns="http://www.w3.org/2000/svg">
<g clip-path="url(#clip0_420_132)">
<path d="M42 12C25.5 12 12 25.5241 12 42.1808C12 57.241 22.98 69.741 37.32 72V50.9157H29.7V42.1808H37.32V35.5241C37.32 27.9638 41.79 23.8072 48.66 23.8072C51.93 23.8072 55.3499 24.3795 55.3499 24.3795V31.8193H51.57C47.85 31.8193 46.68 34.1385 46.68 36.5181V42.1808H55.0199L53.6699 50.9157H46.68V72C53.7491 70.8789 60.1865 67.2575 64.8296 61.7892C69.4727 56.3211 72.0161 49.3663 71.9999 42.1808C71.9999 25.5241 58.4999 12 42 12Z" fill="#A1A4A5"/>
</g>
<circle cx="42" cy="42" r="40.5" stroke="#A1A4A5" stroke-width="3"/>
<defs>
<clipPath id="clip0_420_132">
<rect width="60" height="60" fill="white" transform="translate(12 12)"/>
</clipPath>
</defs>
</svg>
