<svg width="84" height="84" viewBox="0 0 84 84" fill="none" xmlns="http://www.w3.org/2000/svg">
<g clip-path="url(#clip0_420_106)">
<path fill-rule="evenodd" clip-rule="evenodd" d="M42.1587 25.6547C33.1841 25.6547 25.9087 32.9301 25.9087 41.9047C25.9087 50.8795 33.1841 58.1547 42.1587 58.1547C49.8427 58.1547 56.2809 52.8215 57.9739 45.6547H44.6587C42.5877 45.6547 40.9087 43.9757 40.9087 41.9047C40.9087 39.8337 42.5877 38.1547 44.6587 38.1547H62.1587C64.2297 38.1547 65.9087 39.8337 65.9087 41.9047C65.9087 55.0215 55.2754 65.6547 42.1587 65.6547C29.0419 65.6547 18.4087 55.0215 18.4087 41.9047C18.4087 28.7879 29.0419 18.1547 42.1587 18.1547C48.6924 18.1547 54.6159 20.798 58.9062 25.0648C60.3747 26.5252 60.3812 28.8996 58.9207 30.3681C57.4602 31.8365 55.0859 31.843 53.6174 30.3826C50.6752 27.4565 46.6309 25.6547 42.1587 25.6547Z" fill="#A1A4A5"/>
</g>
<circle cx="42" cy="42" r="40.5" stroke="#A1A4A5" stroke-width="3"/>
<defs>
<clipPath id="clip0_420_106">
<rect width="60" height="60" fill="white" transform="translate(7.71436 8.57141)"/>
</clipPath>
</defs>
</svg>
